# xmcd
#
# Track frame offsets: 
#        150
#        3470
#        19097
#        38195
#        53417
#        71357
#        83930
#        97980
#        106242
#        129967
#        143827
#        153490
#        163230
#        179432
#
# Disc length: 2552 seconds
#
# Revision: 1
# Processed by: cddbd v1.5.2PL0 Copyright (c) Steve Scherf et al.
# Submitted via: ExactAudioCopyFreeDBPlugin 1.0
#
DISCID=ab09f60e
DTITLE=Koslowski - Blues Dessous
DYEAR=1994
DGENRE=Blues
TTITLE0=Danke
TTITLE1=Der dicke Junge
TTITLE2=Blockwart Blues
TTITLE3=Jazzmusik
TTITLE4=Mama, Mama
TTITLE5=Groupies
TTITLE6=Schlaf mit mir
TTITLE7=Inkontinenz, gezz aber wacker...
TTITLE8=Sesselfurzer
TTITLE9=Moni, Moni
TTITLE10=Ich bin ein Liebhaber
TTITLE11=Wachturm (Klerikal Rock)
TTITLE12=Mädchen mit den dicken Brillengläsern
TTITLE13=Die Frau, die ich gern haben will
EXTD=YEAR: 1994
EXTT0=
EXTT1=
EXTT2=
EXTT3=
EXTT4=
EXTT5=
EXTT6=
EXTT7=
EXTT8=
EXTT9=
EXTT10=
EXTT11=
EXTT12=
EXTT13=
PLAYORDER=
